<svg xmlns="http://www.w3.org/2000/svg" viewBox="0 0 837 419"><defs><style>.cls-1,.cls-2{fill:#c5fffc;stroke:#000;stroke-miterlimit:10;}.cls-1{opacity:0.43;}.cls-2{stroke-width:2px;}.cls-3{fill:#b2eae4;}.cls-4{fill:#81d3cd;}</style></defs><title>aufgabenbox</title><g id="Layer_2" data-name="Layer 2"><rect class="cls-1" x="0.5" y="0.5" width="836" height="418" rx="12" ry="12"/><rect class="cls-2" x="205.83" y="26" width="589.9" height="366" rx="12" ry="12"/></g><g id="Layer_3" data-name="Layer 3"><rect class="cls-3" x="106.71" y="296.39" width="155.83" height="14.17" rx="7.08" ry="7.08" transform="translate(287.82 566.47) rotate(-180)"/><rect class="cls-3" x="33.77" y="149.92" width="7.67" height="120.17" rx="3.83" ry="3.83"/><rect class="cls-3" x="164.44" y="148.92" width="7.67" height="120.83" rx="3.83" ry="3.83"/><circle class="cls-4" cx="52.68" cy="163.95" r="5.59"/><circle class="cls-4" cx="74.68" cy="163.95" r="5.59"/><circle class="cls-4" cx="151.18" cy="163.95" r="5.59"/><circle class="cls-4" cx="52.68" cy="181.95" r="5.59"/><circle class="cls-4" cx="151.18" cy="181.95" r="5.59"/><circle class="cls-4" cx="130.43" cy="181.95" r="5.59"/><circle class="cls-4" cx="74.68" cy="199.95" r="5.59"/><circle class="cls-4" cx="94.76" cy="199.95" r="5.59"/><circle class="cls-4" cx="116.18" cy="199.95" r="5.59"/><circle class="cls-4" cx="52.68" cy="217.95" r="5.59"/><circle class="cls-4" cx="151.18" cy="217.95" r="5.59"/><circle class="cls-4" cx="94.76" cy="235.95" r="5.59"/><circle class="cls-4" cx="116.18" cy="236.36" r="5.59"/><path class="cls-3" d="M140.87,202.59a6.82,6.82,0,0,1,0,3.64h8.5a6.82,6.82,0,0,1,0-3.64Z" transform="translate(-81.44 -40.47)"/><path class="cls-3" d="M225.86,206.24a6.82,6.82,0,0,1,0-3.64h-63a6.82,6.82,0,0,1,0,3.64Z" transform="translate(-81.44 -40.47)"/><path class="cls-3" d="M256,202.59H239.37a6.82,6.82,0,0,1,0,3.64H256a1.82,1.82,0,0,0,0-3.64Z" transform="translate(-81.44 -40.47)"/><path class="cls-3" d="M127.12,204.42a7,7,0,0,1,.25-1.82H113.24a1.82,1.82,0,0,0,0,3.64h14.12A7,7,0,0,1,127.12,204.42Z" transform="translate(-81.44 -40.47)"/><path class="cls-3" d="M140.87,220.59a6.82,6.82,0,0,1,0,3.64h64.25a6.82,6.82,0,0,1,0-3.64Z" transform="translate(-81.44 -40.47)"/><path class="cls-3" d="M225.86,224.24a6.82,6.82,0,0,1,0-3.64h-7.25a6.82,6.82,0,0,1,0,3.64Z" transform="translate(-81.44 -40.47)"/><path class="cls-3" d="M127.12,222.42a7,7,0,0,1,.25-1.82H113.84a1.82,1.82,0,1,0,0,3.64h13.53A7,7,0,0,1,127.12,222.42Z" transform="translate(-81.44 -40.47)"/><path class="cls-3" d="M256.61,220.59H239.37a6.82,6.82,0,0,1,0,3.64h17.24a1.82,1.82,0,0,0,0-3.64Z" transform="translate(-81.44 -40.47)"/><path class="cls-3" d="M190.86,242.24a6.82,6.82,0,0,1,0-3.64H183a6.82,6.82,0,0,1,0,3.64Z" transform="translate(-81.44 -40.47)"/><path class="cls-3" d="M162.87,238.59a6.82,6.82,0,0,1,0,3.64h6.58a6.82,6.82,0,0,1,0-3.64Z" transform="translate(-81.44 -40.47)"/><path class="cls-3" d="M149.12,240.42a7,7,0,0,1,.25-1.82H113.24a1.82,1.82,0,0,0,0,3.64h36.12A7,7,0,0,1,149.12,240.42Z" transform="translate(-81.44 -40.47)"/><path class="cls-3" d="M256,238.59H204.37a6.82,6.82,0,0,1,0,3.64H256a1.82,1.82,0,0,0,0-3.64Z" transform="translate(-81.44 -40.47)"/><path class="cls-3" d="M140.87,260.24h85a6.82,6.82,0,0,1,0-3.64h-85a6.82,6.82,0,0,1,0,3.64Z" transform="translate(-81.44 -40.47)"/><path class="cls-3" d="M256,256.59H239.37a6.82,6.82,0,0,1,0,3.64H256a1.82,1.82,0,0,0,0-3.64Z" transform="translate(-81.44 -40.47)"/><path class="cls-3" d="M127.12,258.42a7,7,0,0,1,.25-1.82H113.24a1.82,1.82,0,0,0,0,3.64h14.12A7,7,0,0,1,127.12,258.42Z" transform="translate(-81.44 -40.47)"/><path class="cls-3" d="M183,278.24h7.81a7,7,0,0,1,.23-3.64h-8a6.82,6.82,0,0,1,0,3.64Z" transform="translate(-81.44 -40.47)"/><path class="cls-3" d="M169.2,276.42a7,7,0,0,1,.25-1.82H113.24a1.82,1.82,0,0,0,0,3.64h56.21A7,7,0,0,1,169.2,276.42Z" transform="translate(-81.44 -40.47)"/><path class="cls-3" d="M256,274.59H204.24a7,7,0,0,1,.23,3.64H256a1.82,1.82,0,0,0,0-3.64Z" transform="translate(-81.44 -40.47)"/></g></svg>